<?xml version="1.0" standalone="no"?>
<!DOCTYPE svg PUBLIC "-//W3C//DTD SVG 20010904//EN"
 "http://www.w3.org/TR/2001/REC-SVG-20010904/DTD/svg10.dtd">
<svg version="1.0" xmlns="http://www.w3.org/2000/svg"
 width="512.000000pt" height="512.000000pt" viewBox="0 0 512.000000 512.000000"
 preserveAspectRatio="xMidYMid meet">
<metadata>
Created by potrace 1.11, written by Peter Selinger 2001-2013
</metadata>
<g transform="translate(0.000000,512.000000) scale(0.100000,-0.100000)"
fill="#000000" stroke="none">
<path d="M3828 4794 c-131 -30 -57 38 -1546 -1448 l-1393 -1391 -105 -325
c-58 -179 -125 -383 -149 -455 -23 -71 -86 -265 -139 -430 -54 -165 -104 -316
-111 -336 -8 -20 -12 -39 -10 -41 5 -5 5 -5 905 298 365 123 665 224 666 224
11 0 2762 2763 2785 2796 33 49 55 96 64 140 15 68 17 156 5 206 -28 120 -49
148 -315 417 -137 139 -273 269 -302 287 -61 40 -177 73 -248 72 -27 -1 -76
-7 -107 -14z m179 -304 c18 -11 134 -121 258 -245 248 -249 260 -266 236 -347
-10 -32 -40 -70 -129 -160 -64 -65 -121 -117 -125 -115 -5 1 -150 143 -321
315 l-313 313 116 116 c64 64 130 122 146 129 43 19 95 17 132 -6z m22 -1085
c6 -7 -201 -215 -213 -215 -5 0 -150 141 -322 313 l-314 313 109 111 110 111
313 -314 c172 -173 315 -317 317 -319z m-741 -120 l315 -315 -824 -825 c-453
-454 -827 -824 -832 -822 -4 1 -148 143 -321 315 l-313 313 824 825 c454 453
827 824 830 824 3 0 147 -142 321 -315z m-1832 -1904 c134 -134 244 -247 244
-250 0 -3 -131 -50 -292 -104 l-291 -98 -92 92 -92 91 44 136 c24 76 67 210
96 299 l52 162 43 -42 c24 -23 153 -152 288 -286z"/>
</g>
</svg>
